{
    "asset" : {
        "generator" : "Khronos glTF Blender I/O v1.8.19",
        "version" : "2.0"
    },
    "scene" : 0,
    "scenes" : [
        {
            "name" : "Scene",
            "nodes" : [
                9
            ]
        }
    ],
    "nodes" : [
        {
            "mesh" : 0,
            "name" : "pCube10"
        },
        {
            "mesh" : 1,
            "name" : "pCube13"
        },
        {
            "mesh" : 2,
            "name" : "pCube14"
        },
        {
            "mesh" : 3,
            "name" : "pCube8"
        },
        {
            "mesh" : 4,
            "name" : "pCube9",
            "translation" : [
                0,
                -9.253050804138184,
                -1.1871660947799683
            ]
        },
        {
            "mesh" : 5,
            "name" : "pCylinder14"
        },
        {
            "mesh" : 6,
            "name" : "pCylinder15",
            "translation" : [
                0,
                -9.253050804138184,
                -1.1871660947799683
            ]
        },
        {
            "mesh" : 7,
            "name" : "pCylinder16",
            "translation" : [
                0,
                -9.253050804138184,
                -1.1871660947799683
            ]
        },
        {
            "mesh" : 8,
            "name" : "polySurface4"
        },
        {
            "children" : [
                0,
                1,
                2,
                3,
                4,
                5,
                6,
                7,
                8
            ],
            "name" : "group7",
            "rotation" : [
                0.7071068286895752,
                0,
                0,
                0.7071067094802856
            ],
            "scale" : [
                2,
                2,
                2
            ]
        }
    ],
    "materials" : [
        {
            "doubleSided" : true,
            "name" : "phong5",
            "pbrMetallicRoughness" : {
                "baseColorTexture" : {
                    "index" : 0
                },
                "metallicFactor" : 0.5,
                "roughnessFactor" : 0.5527864098548889
            }
        },
        {
            "doubleSided" : true,
            "name" : "phong2",
            "pbrMetallicRoughness" : {
                "baseColorTexture" : {
                    "index" : 1
                },
                "metallicFactor" : 0.5,
                "roughnessFactor" : 0.5527864098548889
            }
        },
        {
            "doubleSided" : true,
            "name" : "phong3",
            "pbrMetallicRoughness" : {
                "baseColorTexture" : {
                    "index" : 2
                },
                "metallicFactor" : 0.5,
                "roughnessFactor" : 0.5527864098548889
            }
        },
        {
            "doubleSided" : true,
            "name" : "phong4",
            "pbrMetallicRoughness" : {
                "baseColorTexture" : {
                    "index" : 3
                },
                "metallicFactor" : 0.5,
                "roughnessFactor" : 0.5527864098548889
            }
        },
        {
            "doubleSided" : true,
            "name" : "phong7",
            "pbrMetallicRoughness" : {
                "baseColorTexture" : {
                    "index" : 4
                },
                "metallicFactor" : 0.5,
                "roughnessFactor" : 0.5527864098548889
            }
        },
        {
            "doubleSided" : true,
            "name" : "phong1",
            "pbrMetallicRoughness" : {
                "baseColorTexture" : {
                    "index" : 5
                },
                "metallicFactor" : 0.5,
                "roughnessFactor" : 0.5527864098548889
            }
        }
    ],
    "meshes" : [
        {
            "name" : "Mesh.012",
            "primitives" : [
                {
                    "attributes" : {
                        "POSITION" : 0,
                        "NORMAL" : 1,
                        "TANGENT" : 2,
                        "TEXCOORD_0" : 3
                    },
                    "indices" : 4,
                    "material" : 0
                }
            ]
        },
        {
            "name" : "Mesh.010",
            "primitives" : [
                {
                    "attributes" : {
                        "POSITION" : 5,
                        "NORMAL" : 6,
                        "TANGENT" : 7,
                        "TEXCOORD_0" : 8
                    },
                    "indices" : 9,
                    "material" : 0
                }
            ]
        },
        {
            "name" : "Mesh.006",
            "primitives" : [
                {
                    "attributes" : {
                        "POSITION" : 10,
                        "NORMAL" : 11,
                        "TANGENT" : 12,
                        "TEXCOORD_0" : 13
                    },
                    "indices" : 14,
                    "material" : 0
                }
            ]
        },
        {
            "name" : "Mesh.008",
            "primitives" : [
                {
                    "attributes" : {
                        "POSITION" : 15,
                        "NORMAL" : 16,
                        "TANGENT" : 17,
                        "TEXCOORD_0" : 18
                    },
                    "indices" : 19,
                    "material" : 1
                }
            ]
        },
        {
            "name" : "Mesh.011",
            "primitives" : [
                {
                    "attributes" : {
                        "POSITION" : 20,
                        "NORMAL" : 21,
                        "TANGENT" : 22,
                        "TEXCOORD_0" : 23
                    },
                    "indices" : 24,
                    "material" : 2
                }
            ]
        },
        {
            "name" : "Mesh.013",
            "primitives" : [
                {
                    "attributes" : {
                        "POSITION" : 25,
                        "NORMAL" : 26,
                        "TANGENT" : 27,
                        "TEXCOORD_0" : 28
                    },
                    "indices" : 29,
                    "material" : 3
                }
            ]
        },
        {
            "name" : "Mesh.005",
            "primitives" : [
                {
                    "attributes" : {
                        "POSITION" : 30,
                        "NORMAL" : 31,
                        "TANGENT" : 32,
                        "TEXCOORD_0" : 33
                    },
                    "indices" : 34,
                    "material" : 4
                }
            ]
        },
        {
            "name" : "Mesh.009",
            "primitives" : [
                {
                    "attributes" : {
                        "POSITION" : 35,
                        "NORMAL" : 36,
                        "TANGENT" : 37,
                        "TEXCOORD_0" : 38
                    },
                    "indices" : 39,
                    "material" : 4
                }
            ]
        },
        {
            "name" : "Mesh.007",
            "primitives" : [
                {
                    "attributes" : {
                        "POSITION" : 40,
                        "NORMAL" : 41,
                        "TANGENT" : 42,
                        "TEXCOORD_0" : 43
                    },
                    "indices" : 44,
                    "material" : 5
                }
            ]
        }
    ],
    "textures" : [
        {
            "sampler" : 0,
            "source" : 0
        },
        {
            "sampler" : 0,
            "source" : 1
        },
        {
            "sampler" : 0,
            "source" : 2
        },
        {
            "sampler" : 0,
            "source" : 3
        },
        {
            "sampler" : 0,
            "source" : 4
        },
        {
            "sampler" : 0,
            "source" : 5
        }
    ],
    "images" : [
        {
            "bufferView" : 5,
            "mimeType" : "image/png",
            "name" : "pouch_initialShadingGroup_BaseColor"
        },
        {
            "bufferView" : 21,
            "mimeType" : "image/png",
            "name" : "helmet_initialShadingGroup_BaseColor"
        },
        {
            "bufferView" : 27,
            "mimeType" : "image/png",
            "name" : "aljaba_initialShadingGroup_BaseColor"
        },
        {
            "bufferView" : 33,
            "mimeType" : "image/png",
            "name" : "cinturon_initialShadingGroup_BaseColor"
        },
        {
            "bufferView" : 39,
            "mimeType" : "image/png",
            "name" : "birote_initialShadingGroup_BaseColor"
        },
        {
            "bufferView" : 50,
            "mimeType" : "image/png",
            "name" : "cuerpo _initialShadingGroup_BaseColor"
        }
    ],
    "accessors" : [
        {
            "bufferView" : 0,
            "componentType" : 5126,
            "count" : 100,
            "max" : [
                -0.17287302017211914,
                0.38826465606689453,
                -0.9506340026855469
            ],
            "min" : [
                -0.28275540471076965,
                0.28091907501220703,
                -1.1763365268707275
            ],
            "type" : "VEC3"
        },
        {
            "bufferView" : 1,
            "componentType" : 5126,
            "count" : 100,
            "type" : "VEC3"
        },
        {
            "bufferView" : 2,
            "componentType" : 5126,
            "count" : 100,
            "type" : "VEC4"
        },
        {
            "bufferView" : 3,
            "componentType" : 5126,
            "count" : 100,
            "type" : "VEC2"
        },
        {
            "bufferView" : 4,
            "componentType" : 5123,
            "count" : 312,
            "type" : "SCALAR"
        },
        {
            "bufferView" : 6,
            "componentType" : 5126,
            "count" : 100,
            "max" : [
                -0.28706520795822144,
                0.23862552642822266,
                -0.9881000518798828
            ],
            "min" : [
                -0.37537914514541626,
                0.13414955139160156,
                -1.2152032852172852
            ],
            "type" : "VEC3"
        },
        {
            "bufferView" : 7,
            "componentType" : 5126,
            "count" : 100,
            "type" : "VEC3"
        },
        {
            "bufferView" : 8,
            "componentType" : 5126,
            "count" : 100,
            "type" : "VEC4"
        },
        {
            "bufferView" : 9,
            "componentType" : 5126,
            "count" : 100,
            "type" : "VEC2"
        },
        {
            "bufferView" : 10,
            "componentType" : 5123,
            "count" : 312,
            "type" : "SCALAR"
        },
        {
            "bufferView" : 11,
            "componentType" : 5126,
            "count" : 100,
            "max" : [
                0.27585363388061523,
                0.38993263244628906,
                -0.9522547721862793
            ],
            "min" : [
                0.1646934151649475,
                0.27838802337646484,
                -1.1770732402801514
            ],
            "type" : "VEC3"
        },
        {
            "bufferView" : 12,
            "componentType" : 5126,
            "count" : 100,
            "type" : "VEC3"
        },
        {
            "bufferView" : 13,
            "componentType" : 5126,
            "count" : 100,
            "type" : "VEC4"
        },
        {
            "bufferView" : 14,
            "componentType" : 5126,
            "count" : 100,
            "type" : "VEC2"
        },
        {
            "bufferView" : 15,
            "componentType" : 5123,
            "count" : 312,
            "type" : "SCALAR"
        },
        {
            "bufferView" : 16,
            "componentType" : 5126,
            "count" : 974,
            "max" : [
                0.4371286928653717,
                0.8410301208496094,
                -1.898353099822998
            ],
            "min" : [
                -0.44414424896240234,
                -0.7224264144897461,
                -3.0133538246154785
            ],
            "type" : "VEC3"
        },
        {
            "bufferView" : 17,
            "componentType" : 5126,
            "count" : 974,
            "type" : "VEC3"
        },
        {
            "bufferView" : 18,
            "componentType" : 5126,
            "count" : 974,
            "type" : "VEC4"
        },
        {
            "bufferView" : 19,
            "componentType" : 5126,
            "count" : 974,
            "type" : "VEC2"
        },
        {
            "bufferView" : 20,
            "componentType" : 5123,
            "count" : 3990,
            "type" : "SCALAR"
        },
        {
            "bufferView" : 22,
            "componentType" : 5126,
            "count" : 249,
            "max" : [
                0.021780163049697876,
                9.203926086425781,
                0.6529632806777954
            ],
            "min" : [
                -0.42682772874832153,
                8.81385612487793,
                0.02994014322757721
            ],
            "type" : "VEC3"
        },
        {
            "bufferView" : 23,
            "componentType" : 5126,
            "count" : 249,
            "type" : "VEC3"
        },
        {
            "bufferView" : 24,
            "componentType" : 5126,
            "count" : 249,
            "type" : "VEC4"
        },
        {
            "bufferView" : 25,
            "componentType" : 5126,
            "count" : 249,
            "type" : "VEC2"
        },
        {
            "bufferView" : 26,
            "componentType" : 5123,
            "count" : 528,
            "type" : "SCALAR"
        },
        {
            "bufferView" : 28,
            "componentType" : 5126,
            "count" : 206,
            "max" : [
                0.3416901230812073,
                0.3532381057739258,
                -0.7987402081489563
            ],
            "min" : [
                -0.35452190041542053,
                -0.16521835327148438,
                -1.2021362781524658
            ],
            "type" : "VEC3"
        },
        {
            "bufferView" : 29,
            "componentType" : 5126,
            "count" : 206,
            "type" : "VEC3"
        },
        {
            "bufferView" : 30,
            "componentType" : 5126,
            "count" : 206,
            "type" : "VEC4"
        },
        {
            "bufferView" : 31,
            "componentType" : 5126,
            "count" : 206,
            "type" : "VEC2"
        },
        {
            "bufferView" : 32,
            "componentType" : 5123,
            "count" : 768,
            "type" : "SCALAR"
        },
        {
            "bufferView" : 34,
            "componentType" : 5126,
            "count" : 81,
            "max" : [
                -0.1956731677055359,
                9.10371208190918,
                0.2554209232330322
            ],
            "min" : [
                -0.4428977966308594,
                8.956559181213379,
                -0.005252838134765625
            ],
            "type" : "VEC3"
        },
        {
            "bufferView" : 35,
            "componentType" : 5126,
            "count" : 81,
            "type" : "VEC3"
        },
        {
            "bufferView" : 36,
            "componentType" : 5126,
            "count" : 81,
            "type" : "VEC4"
        },
        {
            "bufferView" : 37,
            "componentType" : 5126,
            "count" : 81,
            "type" : "VEC2"
        },
        {
            "bufferView" : 38,
            "componentType" : 5123,
            "count" : 204,
            "type" : "SCALAR"
        },
        {
            "bufferView" : 40,
            "componentType" : 5126,
            "count" : 121,
            "max" : [
                -0.2109982669353485,
                9.188472747802734,
                0.31795036792755127
            ],
            "min" : [
                -0.4582228660583496,
                9.041319847106934,
                0.057276248931884766
            ],
            "type" : "VEC3"
        },
        {
            "bufferView" : 41,
            "componentType" : 5126,
            "count" : 121,
            "type" : "VEC3"
        },
        {
            "bufferView" : 42,
            "componentType" : 5126,
            "count" : 121,
            "type" : "VEC4"
        },
        {
            "bufferView" : 43,
            "componentType" : 5126,
            "count" : 121,
            "type" : "VEC2"
        },
        {
            "bufferView" : 44,
            "componentType" : 5123,
            "count" : 204,
            "type" : "SCALAR"
        },
        {
            "bufferView" : 45,
            "componentType" : 5126,
            "count" : 3298,
            "max" : [
                1.3773400783538818,
                0.635859489440918,
                0.016134262084960938
            ],
            "min" : [
                -1.3773400783538818,
                -0.5541038513183594,
                -2.8146378993988037
            ],
            "type" : "VEC3"
        },
        {
            "bufferView" : 46,
            "componentType" : 5126,
            "count" : 3298,
            "type" : "VEC3"
        },
        {
            "bufferView" : 47,
            "componentType" : 5126,
            "count" : 3298,
            "type" : "VEC4"
        },
        {
            "bufferView" : 48,
            "componentType" : 5126,
            "count" : 3298,
            "type" : "VEC2"
        },
        {
            "bufferView" : 49,
            "componentType" : 5123,
            "count" : 11556,
            "type" : "SCALAR"
        }
    ],
    "bufferViews" : [
        {
            "buffer" : 0,
            "byteLength" : 1200,
            "byteOffset" : 0
        },
        {
            "buffer" : 0,
            "byteLength" : 1200,
            "byteOffset" : 1200
        },
        {
            "buffer" : 0,
            "byteLength" : 1600,
            "byteOffset" : 2400
        },
        {
            "buffer" : 0,
            "byteLength" : 800,
            "byteOffset" : 4000
        },
        {
            "buffer" : 0,
            "byteLength" : 624,
            "byteOffset" : 4800
        },
        {
            "buffer" : 0,
            "byteLength" : 53361,
            "byteOffset" : 5424
        },
        {
            "buffer" : 0,
            "byteLength" : 1200,
            "byteOffset" : 58788
        },
        {
            "buffer" : 0,
            "byteLength" : 1200,
            "byteOffset" : 59988
        },
        {
            "buffer" : 0,
            "byteLength" : 1600,
            "byteOffset" : 61188
        },
        {
            "buffer" : 0,
            "byteLength" : 800,
            "byteOffset" : 62788
        },
        {
            "buffer" : 0,
            "byteLength" : 624,
            "byteOffset" : 63588
        },
        {
            "buffer" : 0,
            "byteLength" : 1200,
            "byteOffset" : 64212
        },
        {
            "buffer" : 0,
            "byteLength" : 1200,
            "byteOffset" : 65412
        },
        {
            "buffer" : 0,
            "byteLength" : 1600,
            "byteOffset" : 66612
        },
        {
            "buffer" : 0,
            "byteLength" : 800,
            "byteOffset" : 68212
        },
        {
            "buffer" : 0,
            "byteLength" : 624,
            "byteOffset" : 69012
        },
        {
            "buffer" : 0,
            "byteLength" : 11688,
            "byteOffset" : 69636
        },
        {
            "buffer" : 0,
            "byteLength" : 11688,
            "byteOffset" : 81324
        },
        {
            "buffer" : 0,
            "byteLength" : 15584,
            "byteOffset" : 93012
        },
        {
            "buffer" : 0,
            "byteLength" : 7792,
            "byteOffset" : 108596
        },
        {
            "buffer" : 0,
            "byteLength" : 7980,
            "byteOffset" : 116388
        },
        {
            "buffer" : 0,
            "byteLength" : 410374,
            "byteOffset" : 124368
        },
        {
            "buffer" : 0,
            "byteLength" : 2988,
            "byteOffset" : 534744
        },
        {
            "buffer" : 0,
            "byteLength" : 2988,
            "byteOffset" : 537732
        },
        {
            "buffer" : 0,
            "byteLength" : 3984,
            "byteOffset" : 540720
        },
        {
            "buffer" : 0,
            "byteLength" : 1992,
            "byteOffset" : 544704
        },
        {
            "buffer" : 0,
            "byteLength" : 1056,
            "byteOffset" : 546696
        },
        {
            "buffer" : 0,
            "byteLength" : 144166,
            "byteOffset" : 547752
        },
        {
            "buffer" : 0,
            "byteLength" : 2472,
            "byteOffset" : 691920
        },
        {
            "buffer" : 0,
            "byteLength" : 2472,
            "byteOffset" : 694392
        },
        {
            "buffer" : 0,
            "byteLength" : 3296,
            "byteOffset" : 696864
        },
        {
            "buffer" : 0,
            "byteLength" : 1648,
            "byteOffset" : 700160
        },
        {
            "buffer" : 0,
            "byteLength" : 1536,
            "byteOffset" : 701808
        },
        {
            "buffer" : 0,
            "byteLength" : 201398,
            "byteOffset" : 703344
        },
        {
            "buffer" : 0,
            "byteLength" : 972,
            "byteOffset" : 904744
        },
        {
            "buffer" : 0,
            "byteLength" : 972,
            "byteOffset" : 905716
        },
        {
            "buffer" : 0,
            "byteLength" : 1296,
            "byteOffset" : 906688
        },
        {
            "buffer" : 0,
            "byteLength" : 648,
            "byteOffset" : 907984
        },
        {
            "buffer" : 0,
            "byteLength" : 408,
            "byteOffset" : 908632
        },
        {
            "buffer" : 0,
            "byteLength" : 105085,
            "byteOffset" : 909040
        },
        {
            "buffer" : 0,
            "byteLength" : 1452,
            "byteOffset" : 1014128
        },
        {
            "buffer" : 0,
            "byteLength" : 1452,
            "byteOffset" : 1015580
        },
        {
            "buffer" : 0,
            "byteLength" : 1936,
            "byteOffset" : 1017032
        },
        {
            "buffer" : 0,
            "byteLength" : 968,
            "byteOffset" : 1018968
        },
        {
            "buffer" : 0,
            "byteLength" : 408,
            "byteOffset" : 1019936
        },
        {
            "buffer" : 0,
            "byteLength" : 39576,
            "byteOffset" : 1020344
        },
        {
            "buffer" : 0,
            "byteLength" : 39576,
            "byteOffset" : 1059920
        },
        {
            "buffer" : 0,
            "byteLength" : 52768,
            "byteOffset" : 1099496
        },
        {
            "buffer" : 0,
            "byteLength" : 26384,
            "byteOffset" : 1152264
        },
        {
            "buffer" : 0,
            "byteLength" : 23112,
            "byteOffset" : 1178648
        },
        {
            "buffer" : 0,
            "byteLength" : 435658,
            "byteOffset" : 1201760
        }
    ],
    "samplers" : [
        {
            "magFilter" : 9729,
            "minFilter" : 9987
        }
    ],
    "buffers" : [
        {
            "byteLength" : 1637420,
            "uri" : "data:application/octet-stream;base64,"
        }
    ]
}
