{
    "asset" : {
        "generator" : "Khronos glTF Blender I/O v1.8.19",
        "version" : "2.0"
    },
    "scene" : 0,
    "scenes" : [
        {
            "name" : "Scene",
            "nodes" : [
                12
            ]
        }
    ],
    "nodes" : [
        {
            "mesh" : 0,
            "name" : "group3",
            "scale" : [
                1.0913536548614502,
                1.052882194519043,
                0.9874468445777893
            ],
            "translation" : [
                8.95411940291524e-05,
                -0.3233456611633301,
                -0.04336977005004883
            ]
        },
        {
            "mesh" : 1,
            "name" : "pCube1",
            "rotation" : [
                0,
                0,
                0.7071067690849304,
                0.7071068286895752
            ],
            "scale" : [
                1,
                0.9454661011695862,
                1
            ],
            "translation" : [
                0,
                4.605894088745117,
                -3.695594549179077
            ]
        },
        {
            "mesh" : 2,
            "name" : "polySurface5"
        },
        {
            "mesh" : 3,
            "name" : "polySurface7"
        },
        {
            "mesh" : 4,
            "name" : "polySurface8"
        },
        {
            "children" : [
                2,
                3,
                4
            ],
            "name" : "polySurface4"
        },
        {
            "children" : [
                5
            ],
            "name" : "pCube14"
        },
        {
            "mesh" : 5,
            "name" : "polySurface11"
        },
        {
            "mesh" : 6,
            "name" : "polySurface12"
        },
        {
            "mesh" : 7,
            "name" : "polySurface9"
        },
        {
            "children" : [
                7,
                8,
                9
            ],
            "name" : "polySurface3",
            "translation" : [
                0,
                0,
                3.379633665084839
            ]
        },
        {
            "mesh" : 8,
            "name" : "pSphere1",
            "rotation" : [
                0,
                0,
                0.11194319278001785,
                0.9937146306037903
            ],
            "scale" : [
                0.15055418014526367,
                0.15055418014526367,
                0.15055418014526367
            ],
            "translation" : [
                0.3996514678001404,
                4.850539207458496,
                -3.989698886871338
            ]
        },
        {
            "children" : [
                0,
                1,
                6,
                10,
                11
            ],
            "name" : "group4",
            "rotation" : [
                0.7071068286895752,
                0,
                0,
                0.7071067094802856
            ],
            "scale" : [
                2,
                2,
                2
            ],
            "translation" : [
                0,
                0.03379633650183678,
                0
            ]
        }
    ],
    "materials" : [
        {
            "doubleSided" : true,
            "name" : "phong5.001",
            "pbrMetallicRoughness" : {
                "baseColorFactor" : [
                    0.2329999953508377,
                    0.007525898981839418,
                    0,
                    1
                ],
                "metallicFactor" : 0.5,
                "roughnessFactor" : 0.5527864098548889
            }
        },
        {
            "doubleSided" : true,
            "name" : "phong8",
            "pbrMetallicRoughness" : {
                "baseColorTexture" : {
                    "index" : 0
                },
                "metallicFactor" : 0.5,
                "roughnessFactor" : 0.5527864098548889
            }
        },
        {
            "doubleSided" : true,
            "name" : "phong6",
            "pbrMetallicRoughness" : {
                "baseColorFactor" : [
                    0.03400000184774399,
                    0.03324601799249649,
                    0.024208001792430878,
                    1
                ],
                "metallicFactor" : 0.5,
                "roughnessFactor" : 0.5527864098548889
            }
        },
        {
            "doubleSided" : true,
            "name" : "phong3.001",
            "pbrMetallicRoughness" : {
                "baseColorFactor" : [
                    0.11800000071525574,
                    0.0038113994523882866,
                    0,
                    1
                ],
                "metallicFactor" : 0.5,
                "roughnessFactor" : 0.5527864098548889
            }
        }
    ],
    "meshes" : [
        {
            "name" : "Mesh.016",
            "primitives" : [
                {
                    "attributes" : {
                        "POSITION" : 0,
                        "NORMAL" : 1,
                        "TEXCOORD_0" : 2
                    },
                    "indices" : 3,
                    "material" : 0
                }
            ]
        },
        {
            "name" : "Mesh.014",
            "primitives" : [
                {
                    "attributes" : {
                        "POSITION" : 4,
                        "NORMAL" : 5,
                        "TANGENT" : 6,
                        "TEXCOORD_0" : 7
                    },
                    "indices" : 8,
                    "material" : 1
                }
            ]
        },
        {
            "name" : "Mesh.019",
            "primitives" : [
                {
                    "attributes" : {
                        "POSITION" : 9,
                        "NORMAL" : 10,
                        "TANGENT" : 11,
                        "TEXCOORD_0" : 12
                    },
                    "indices" : 13,
                    "material" : 2
                }
            ]
        },
        {
            "name" : "Mesh.018",
            "primitives" : [
                {
                    "attributes" : {
                        "POSITION" : 14,
                        "NORMAL" : 15,
                        "TANGENT" : 16,
                        "TEXCOORD_0" : 17
                    },
                    "indices" : 18,
                    "material" : 2
                }
            ]
        },
        {
            "name" : "Mesh.017",
            "primitives" : [
                {
                    "attributes" : {
                        "POSITION" : 19,
                        "NORMAL" : 20,
                        "TANGENT" : 21,
                        "TEXCOORD_0" : 22
                    },
                    "indices" : 23,
                    "material" : 2
                }
            ]
        },
        {
            "name" : "Mesh.021",
            "primitives" : [
                {
                    "attributes" : {
                        "POSITION" : 24,
                        "NORMAL" : 25,
                        "TANGENT" : 26,
                        "TEXCOORD_0" : 27
                    },
                    "indices" : 28,
                    "material" : 2
                }
            ]
        },
        {
            "name" : "Mesh.020",
            "primitives" : [
                {
                    "attributes" : {
                        "POSITION" : 29,
                        "NORMAL" : 30,
                        "TANGENT" : 31,
                        "TEXCOORD_0" : 32
                    },
                    "indices" : 33,
                    "material" : 2
                }
            ]
        },
        {
            "name" : "Mesh.022",
            "primitives" : [
                {
                    "attributes" : {
                        "POSITION" : 34,
                        "NORMAL" : 35,
                        "TANGENT" : 36,
                        "TEXCOORD_0" : 37
                    },
                    "indices" : 38,
                    "material" : 2
                }
            ]
        },
        {
            "name" : "Mesh.015",
            "primitives" : [
                {
                    "attributes" : {
                        "POSITION" : 39,
                        "NORMAL" : 40,
                        "TANGENT" : 41,
                        "TEXCOORD_0" : 42
                    },
                    "indices" : 43,
                    "material" : 3
                }
            ]
        }
    ],
    "textures" : [
        {
            "sampler" : 0,
            "source" : 0
        }
    ],
    "images" : [
        {
            "bufferView" : 9,
            "mimeType" : "image/png",
            "name" : "CuerpoVelo_initialShadingGroup_BaseColor"
        }
    ],
    "accessors" : [
        {
            "bufferView" : 0,
            "componentType" : 5126,
            "count" : 1260,
            "max" : [
                0.2583148181438446,
                6.413282871246338,
                -3.1865437030792236
            ],
            "min" : [
                -0.26027512550354004,
                5.898509502410889,
                -3.6968753337860107
            ],
            "type" : "VEC3"
        },
        {
            "bufferView" : 1,
            "componentType" : 5126,
            "count" : 1260,
            "type" : "VEC3"
        },
        {
            "bufferView" : 2,
            "componentType" : 5126,
            "count" : 1260,
            "type" : "VEC2"
        },
        {
            "bufferView" : 3,
            "componentType" : 5123,
            "count" : 2688,
            "type" : "SCALAR"
        },
        {
            "bufferView" : 4,
            "componentType" : 5126,
            "count" : 3648,
            "max" : [
                1.9278830289840698,
                1.637863039970398,
                7.096848964691162
            ],
            "min" : [
                -11.844679832458496,
                -1.6378629207611084,
                -0.6773067116737366
            ],
            "type" : "VEC3"
        },
        {
            "bufferView" : 5,
            "componentType" : 5126,
            "count" : 3648,
            "type" : "VEC3"
        },
        {
            "bufferView" : 6,
            "componentType" : 5126,
            "count" : 3648,
            "type" : "VEC4"
        },
        {
            "bufferView" : 7,
            "componentType" : 5126,
            "count" : 3648,
            "type" : "VEC2"
        },
        {
            "bufferView" : 8,
            "componentType" : 5123,
            "count" : 15732,
            "type" : "SCALAR"
        },
        {
            "bufferView" : 10,
            "componentType" : 5126,
            "count" : 148,
            "max" : [
                -0.7424023747444153,
                0.7213075160980225,
                2.9494762420654297
            ],
            "min" : [
                -0.8920885920524597,
                -0.061388880014419556,
                2.5611770153045654
            ],
            "type" : "VEC3"
        },
        {
            "bufferView" : 11,
            "componentType" : 5126,
            "count" : 148,
            "type" : "VEC3"
        },
        {
            "bufferView" : 12,
            "componentType" : 5126,
            "count" : 148,
            "type" : "VEC4"
        },
        {
            "bufferView" : 13,
            "componentType" : 5126,
            "count" : 148,
            "type" : "VEC2"
        },
        {
            "bufferView" : 14,
            "componentType" : 5123,
            "count" : 672,
            "type" : "SCALAR"
        },
        {
            "bufferView" : 15,
            "componentType" : 5126,
            "count" : 107,
            "max" : [
                -0.9807277917861938,
                0.9982847571372986,
                3.3992860317230225
            ],
            "min" : [
                -1.180916666984558,
                0.3226270079612732,
                3.08127760887146
            ],
            "type" : "VEC3"
        },
        {
            "bufferView" : 16,
            "componentType" : 5126,
            "count" : 107,
            "type" : "VEC3"
        },
        {
            "bufferView" : 17,
            "componentType" : 5126,
            "count" : 107,
            "type" : "VEC4"
        },
        {
            "bufferView" : 18,
            "componentType" : 5126,
            "count" : 107,
            "type" : "VEC2"
        },
        {
            "bufferView" : 19,
            "componentType" : 5123,
            "count" : 408,
            "type" : "SCALAR"
        },
        {
            "bufferView" : 20,
            "componentType" : 5126,
            "count" : 106,
            "max" : [
                -1.3032479286193848,
                0.9797000885009766,
                3.3814754486083984
            ],
            "min" : [
                -1.5079965591430664,
                0.3040432333946228,
                3.0812783241271973
            ],
            "type" : "VEC3"
        },
        {
            "bufferView" : 21,
            "componentType" : 5126,
            "count" : 106,
            "type" : "VEC3"
        },
        {
            "bufferView" : 22,
            "componentType" : 5126,
            "count" : 106,
            "type" : "VEC4"
        },
        {
            "bufferView" : 23,
            "componentType" : 5126,
            "count" : 106,
            "type" : "VEC2"
        },
        {
            "bufferView" : 24,
            "componentType" : 5123,
            "count" : 408,
            "type" : "SCALAR"
        },
        {
            "bufferView" : 25,
            "componentType" : 5126,
            "count" : 107,
            "max" : [
                1.1809172630310059,
                0.998284637928009,
                0.01965188980102539
            ],
            "min" : [
                0.9807278513908386,
                0.3226269781589508,
                -0.2983560562133789
            ],
            "type" : "VEC3"
        },
        {
            "bufferView" : 26,
            "componentType" : 5126,
            "count" : 107,
            "type" : "VEC3"
        },
        {
            "bufferView" : 27,
            "componentType" : 5126,
            "count" : 107,
            "type" : "VEC4"
        },
        {
            "bufferView" : 28,
            "componentType" : 5126,
            "count" : 107,
            "type" : "VEC2"
        },
        {
            "bufferView" : 29,
            "componentType" : 5123,
            "count" : 408,
            "type" : "SCALAR"
        },
        {
            "bufferView" : 30,
            "componentType" : 5126,
            "count" : 106,
            "max" : [
                1.5079963207244873,
                0.9797000885009766,
                0.0018417835235595703
            ],
            "min" : [
                1.3032478094100952,
                0.30404314398765564,
                -0.2983560562133789
            ],
            "type" : "VEC3"
        },
        {
            "bufferView" : 31,
            "componentType" : 5126,
            "count" : 106,
            "type" : "VEC3"
        },
        {
            "bufferView" : 32,
            "componentType" : 5126,
            "count" : 106,
            "type" : "VEC4"
        },
        {
            "bufferView" : 33,
            "componentType" : 5126,
            "count" : 106,
            "type" : "VEC2"
        },
        {
            "bufferView" : 34,
            "componentType" : 5123,
            "count" : 408,
            "type" : "SCALAR"
        },
        {
            "bufferView" : 35,
            "componentType" : 5126,
            "count" : 148,
            "max" : [
                0.8920887112617493,
                0.7213075160980225,
                -0.4301576614379883
            ],
            "min" : [
                0.7424024343490601,
                -0.06138890981674194,
                -0.8184568881988525
            ],
            "type" : "VEC3"
        },
        {
            "bufferView" : 36,
            "componentType" : 5126,
            "count" : 148,
            "type" : "VEC3"
        },
        {
            "bufferView" : 37,
            "componentType" : 5126,
            "count" : 148,
            "type" : "VEC4"
        },
        {
            "bufferView" : 38,
            "componentType" : 5126,
            "count" : 148,
            "type" : "VEC2"
        },
        {
            "bufferView" : 39,
            "componentType" : 5123,
            "count" : 672,
            "type" : "SCALAR"
        },
        {
            "bufferView" : 40,
            "componentType" : 5126,
            "count" : 572,
            "max" : [
                0.9945220947265625,
                2.1666946411132812,
                0.9999980926513672
            ],
            "min" : [
                -6.170088291168213,
                -0.9890670776367188,
                -1.0000038146972656
            ],
            "type" : "VEC3"
        },
        {
            "bufferView" : 41,
            "componentType" : 5126,
            "count" : 572,
            "type" : "VEC3"
        },
        {
            "bufferView" : 42,
            "componentType" : 5126,
            "count" : 572,
            "type" : "VEC4"
        },
        {
            "bufferView" : 43,
            "componentType" : 5126,
            "count" : 572,
            "type" : "VEC2"
        },
        {
            "bufferView" : 44,
            "componentType" : 5123,
            "count" : 2520,
            "type" : "SCALAR"
        }
    ],
    "bufferViews" : [
        {
            "buffer" : 0,
            "byteLength" : 15120,
            "byteOffset" : 0
        },
        {
            "buffer" : 0,
            "byteLength" : 15120,
            "byteOffset" : 15120
        },
        {
            "buffer" : 0,
            "byteLength" : 10080,
            "byteOffset" : 30240
        },
        {
            "buffer" : 0,
            "byteLength" : 5376,
            "byteOffset" : 40320
        },
        {
            "buffer" : 0,
            "byteLength" : 43776,
            "byteOffset" : 45696
        },
        {
            "buffer" : 0,
            "byteLength" : 43776,
            "byteOffset" : 89472
        },
        {
            "buffer" : 0,
            "byteLength" : 58368,
            "byteOffset" : 133248
        },
        {
            "buffer" : 0,
            "byteLength" : 29184,
            "byteOffset" : 191616
        },
        {
            "buffer" : 0,
            "byteLength" : 31464,
            "byteOffset" : 220800
        },
        {
            "buffer" : 0,
            "byteLength" : 375724,
            "byteOffset" : 252264
        },
        {
            "buffer" : 0,
            "byteLength" : 1776,
            "byteOffset" : 627988
        },
        {
            "buffer" : 0,
            "byteLength" : 1776,
            "byteOffset" : 629764
        },
        {
            "buffer" : 0,
            "byteLength" : 2368,
            "byteOffset" : 631540
        },
        {
            "buffer" : 0,
            "byteLength" : 1184,
            "byteOffset" : 633908
        },
        {
            "buffer" : 0,
            "byteLength" : 1344,
            "byteOffset" : 635092
        },
        {
            "buffer" : 0,
            "byteLength" : 1284,
            "byteOffset" : 636436
        },
        {
            "buffer" : 0,
            "byteLength" : 1284,
            "byteOffset" : 637720
        },
        {
            "buffer" : 0,
            "byteLength" : 1712,
            "byteOffset" : 639004
        },
        {
            "buffer" : 0,
            "byteLength" : 856,
            "byteOffset" : 640716
        },
        {
            "buffer" : 0,
            "byteLength" : 816,
            "byteOffset" : 641572
        },
        {
            "buffer" : 0,
            "byteLength" : 1272,
            "byteOffset" : 642388
        },
        {
            "buffer" : 0,
            "byteLength" : 1272,
            "byteOffset" : 643660
        },
        {
            "buffer" : 0,
            "byteLength" : 1696,
            "byteOffset" : 644932
        },
        {
            "buffer" : 0,
            "byteLength" : 848,
            "byteOffset" : 646628
        },
        {
            "buffer" : 0,
            "byteLength" : 816,
            "byteOffset" : 647476
        },
        {
            "buffer" : 0,
            "byteLength" : 1284,
            "byteOffset" : 648292
        },
        {
            "buffer" : 0,
            "byteLength" : 1284,
            "byteOffset" : 649576
        },
        {
            "buffer" : 0,
            "byteLength" : 1712,
            "byteOffset" : 650860
        },
        {
            "buffer" : 0,
            "byteLength" : 856,
            "byteOffset" : 652572
        },
        {
            "buffer" : 0,
            "byteLength" : 816,
            "byteOffset" : 653428
        },
        {
            "buffer" : 0,
            "byteLength" : 1272,
            "byteOffset" : 654244
        },
        {
            "buffer" : 0,
            "byteLength" : 1272,
            "byteOffset" : 655516
        },
        {
            "buffer" : 0,
            "byteLength" : 1696,
            "byteOffset" : 656788
        },
        {
            "buffer" : 0,
            "byteLength" : 848,
            "byteOffset" : 658484
        },
        {
            "buffer" : 0,
            "byteLength" : 816,
            "byteOffset" : 659332
        },
        {
            "buffer" : 0,
            "byteLength" : 1776,
            "byteOffset" : 660148
        },
        {
            "buffer" : 0,
            "byteLength" : 1776,
            "byteOffset" : 661924
        },
        {
            "buffer" : 0,
            "byteLength" : 2368,
            "byteOffset" : 663700
        },
        {
            "buffer" : 0,
            "byteLength" : 1184,
            "byteOffset" : 666068
        },
        {
            "buffer" : 0,
            "byteLength" : 1344,
            "byteOffset" : 667252
        },
        {
            "buffer" : 0,
            "byteLength" : 6864,
            "byteOffset" : 668596
        },
        {
            "buffer" : 0,
            "byteLength" : 6864,
            "byteOffset" : 675460
        },
        {
            "buffer" : 0,
            "byteLength" : 9152,
            "byteOffset" : 682324
        },
        {
            "buffer" : 0,
            "byteLength" : 4576,
            "byteOffset" : 691476
        },
        {
            "buffer" : 0,
            "byteLength" : 5040,
            "byteOffset" : 696052
        }
    ],
    "samplers" : [
        {
            "magFilter" : 9729,
            "minFilter" : 9987
        }
    ],
    "buffers" : [
        {
            "byteLength" : 701092,
            "uri" : "data:application/octet-stream;base64,"
        }
    ]
}
